<svg xmlns="http://www.w3.org/2000/svg" viewBox="0 0 760 250" role="img" aria-labelledby="title desc">
  <title id="title">EmbarqueAi</title>
  <desc id="desc">Logo EmbarqueAi com marcador azul de ônibus e texto azul.</desc>
  <defs>
    <linearGradient id="pin" x1="0" x2="1" y1="0" y2="1">
      <stop offset="0" stop-color="#25c2ef"/>
      <stop offset=".55" stop-color="#1267df"/>
      <stop offset="1" stop-color="#0646a6"/>
    </linearGradient>
    <linearGradient id="text" x1="0" x2="1" y1="0" y2="0">
      <stop offset="0" stop-color="#063a99"/>
      <stop offset=".62" stop-color="#096bd9"/>
      <stop offset="1" stop-color="#27c5f0"/>
    </linearGradient>
    <filter id="shadow" x="-20%" y="-20%" width="150%" height="150%">
      <feDropShadow dx="4" dy="6" stdDeviation="4" flood-color="#051a3b" flood-opacity=".45"/>
    </filter>
  </defs>
  <g filter="url(#shadow)">
    <path d="M185 37c-48 0-87 38-87 85 0 66 87 116 87 116s87-50 87-116c0-47-39-85-87-85z" fill="url(#pin)"/>
    <ellipse cx="185" cy="229" rx="60" ry="11" fill="#07448d" opacity=".8"/>
    <rect x="134" y="79" width="103" height="92" rx="21" fill="#effaff"/>
    <rect x="151" y="94" width="68" height="42" rx="8" fill="#22afe6"/>
    <circle cx="160" cy="153" r="9" fill="#22afe6"/>
    <circle cx="213" cy="153" r="9" fill="#22afe6"/>
    <rect x="168" y="171" width="34" height="8" rx="4" fill="#075ebc"/>
    <path d="M137 52c23-26 72-28 100-1" fill="none" stroke="#20b9ef" stroke-width="12" stroke-linecap="round"/>
    <path d="M156 67c15-13 43-14 59 0" fill="none" stroke="#0748a8" stroke-width="11" stroke-linecap="round"/>
  </g>
  <g filter="url(#shadow)">
    <text x="284" y="156" fill="url(#text)" font-family="Inter, Segoe UI, Arial, sans-serif" font-size="82" font-weight="900" letter-spacing="-2">EmbarqueAi</text>
  </g>
</svg>
